<svg width="21" height="20" viewBox="0 0 21 20" fill="none" xmlns="http://www.w3.org/2000/svg">
<path d="M10.5 0C4.69355 0 0.177422 4.51613 0.177422 10.3226C0.177422 17.0968 6.30645 20 7.2742 20C7.91936 20 7.91936 19.6774 7.91936 19.3548V17.7419C5.66129 18.3871 4.69355 17.0968 4.37097 16.129C4.37097 16.129 4.37097 15.8065 3.72581 15.1613C3.40323 14.8387 2.11291 14.1935 3.40323 14.1935C4.37097 14.1935 5.01613 15.4839 5.01613 15.4839C5.98387 16.7742 7.2742 16.4516 7.91936 16.129C7.91936 15.4839 8.56452 14.8387 8.56452 14.8387C5.98387 14.5161 4.04839 13.5484 4.04839 10C4.04839 8.70968 4.37097 7.74194 5.01613 7.09677C5.01613 7.09677 4.37097 5.80645 5.01613 4.19355C5.01613 4.19355 6.62903 4.19355 7.91936 5.48387C8.8871 4.83871 12.1129 4.83871 13.0806 5.48387C14.371 4.19355 15.9839 4.19355 15.9839 4.19355C16.629 6.45161 15.9839 7.09677 15.9839 7.09677C16.629 7.74194 16.9516 8.70968 16.9516 10C16.9516 13.5484 14.6936 14.5161 12.4355 14.8387C12.7581 15.1613 13.0806 15.8065 13.0806 16.7742V19.3548C13.0806 19.6774 13.0806 20 13.7258 20C14.6936 20 20.8226 17.0968 20.8226 10.3226C20.8226 4.51613 16.3065 0 10.5 0Z" fill="white"/>
</svg>
