<svg width="20" height="20" viewBox="0 0 20 20" fill="none" xmlns="http://www.w3.org/2000/svg">
<g clip-path="url(#clip0_41_4)">
<path d="M10 20C15.5229 20 20 15.5229 20 10C20 4.47708 15.5229 0 10 0C4.47708 0 0 4.47708 0 10C0 15.5229 4.47708 20 10 20Z" fill="white"/>
<path d="M5.68749 5.48708V8.88873C6.2054 8.27127 6.82627 7.9604 7.54627 7.9604C7.91707 7.9604 8.24913 8.03127 8.54707 8.17167C8.8458 8.31127 9.06913 8.4904 9.22 8.70793C9.37167 8.92747 9.47413 9.16793 9.5296 9.43293C9.5846 9.69667 9.61207 10.1071 9.61207 10.6637V14.3008H8.00293V11.025C8.00293 10.375 7.97373 9.96333 7.91247 9.78833C7.85507 9.61693 7.74127 9.47 7.5896 9.37167C7.4346 9.26707 7.24167 9.2154 7.00873 9.2154C6.74207 9.2154 6.5029 9.28207 6.29499 9.4146C6.08249 9.54793 5.92999 9.74707 5.83332 10.0133C5.73499 10.28 5.68582 10.6737 5.68749 11.195L5.68582 14.3008H4.07874V5.48708H5.68749ZM12.0237 5.48708V8.88873C12.5421 8.27127 13.1625 7.9604 13.8821 7.9604C14.2517 7.9604 14.5863 8.03127 14.8846 8.17167C15.1821 8.31127 15.4054 8.4904 15.5554 8.70793C15.7068 8.92607 15.8121 9.17273 15.865 9.43293C15.9204 9.69667 15.9479 10.1071 15.9479 10.6637V14.3008H14.3404V11.025C14.3404 10.375 14.31 9.96333 14.2487 9.78833C14.1913 9.61667 14.0771 9.46967 13.925 9.37167C13.7717 9.26707 13.5771 9.2154 13.3441 9.2154C13.0779 9.2154 12.8387 9.28207 12.6304 9.4146C12.4208 9.54793 12.2675 9.74707 12.1696 10.0133C12.0729 10.28 12.0237 10.6737 12.0237 11.195V14.3008H10.4167V5.48708H12.0237Z" fill="#D6001C"/>
</g>
<defs>
<clipPath id="clip0_41_4">
<rect width="20" height="20" fill="white"/>
</clipPath>
</defs>
</svg>
