<svg width="18" height="10" viewBox="0 0 18 10" fill="none" xmlns="http://www.w3.org/2000/svg">
<path fill-rule="evenodd" clip-rule="evenodd" d="M16.941 0.694444C17.0646 0.302778 16.941 0.0180554 16.3941 0.0180554H14.5757C14.14 0.0180554 13.9271 0.242976 13.8009 0.494058C13.7876 0.520498 13.7766 0.546223 13.7651 0.573476C13.6347 0.881557 12.7452 2.92601 11.5399 4.28854C11.1163 4.71562 10.9222 4.85799 10.6927 4.85799C10.5691 4.85799 10.4101 4.71562 10.4101 4.32431V0.676042C10.4101 0.213542 10.2691 0 9.88056 0H7.02084C6.7382 0 6.56181 0.213542 6.56181 0.427083C6.56181 0.871875 7.21494 0.978819 7.28542 2.22431V4.93056C7.28542 5.51771 7.18126 5.625 6.95001 5.625C6.3323 5.625 4.83195 3.32951 3.93195 0.713889C3.75695 0.195833 3.57917 0 3.12014 0H1.28438C0.754866 0 0.666672 0.248958 0.666672 0.515972C0.666672 0.996528 1.28438 3.41632 3.54376 6.6191C5.0441 8.8066 7.17987 9.98229 9.10383 9.98229C10.2691 9.98229 10.4101 9.71528 10.4101 9.27049V7.61562C10.4101 7.08194 10.516 6.99306 10.8868 6.99306C11.1514 6.99306 11.6281 7.13507 12.7049 8.18507C13.9403 9.43056 14.1521 10 14.8406 10H16.6587C17.1882 10 17.4354 9.73299 17.2941 9.21701C17.1354 8.70104 16.5351 7.95382 15.7583 7.06424C15.3347 6.56632 14.6993 6.01458 14.5052 5.74757C14.2691 5.42998 14.7862 4.5092 15.0047 4.17926C15.6702 3.17442 16.7825 1.43205 16.941 0.693056" fill="white"/>
</svg>
