<svg width="16" height="10" viewBox="0 0 16 10" fill="none" xmlns="http://www.w3.org/2000/svg">
<path d="M15.1117 3.52431C15.1437 2.599 14.9413 1.68061 14.5235 0.85442C14.24 0.515414 13.8465 0.286638 13.4117 0.207956C11.613 0.0447408 9.80698 -0.022156 8.00121 0.00755282C6.20202 -0.0235044 4.40246 0.0412337 2.61015 0.201492C2.2558 0.265955 1.92788 0.432177 1.66639 0.679875C1.08462 1.21644 1.01998 2.13442 0.955342 2.91017C0.861556 4.30496 0.861556 5.70447 0.955342 7.09926C0.974043 7.53588 1.03905 7.96929 1.14926 8.39218C1.22721 8.71869 1.3849 9.02077 1.60822 9.27137C1.87148 9.53219 2.20704 9.70787 2.57137 9.77561C3.96497 9.94765 5.36917 10.0189 6.77303 9.98895C9.03547 10.0213 11.0199 9.98895 13.3664 9.80794C13.7397 9.74436 14.0847 9.56845 14.3554 9.3037C14.5364 9.12263 14.6716 8.90101 14.7497 8.65723C14.9809 7.94782 15.0945 7.20535 15.0859 6.45926C15.1117 6.09724 15.1117 3.91219 15.1117 3.52431ZM6.54033 6.84714V2.84553L10.3671 4.85603C9.29403 5.45078 7.87839 6.1231 6.54033 6.84714Z" fill="white"/>
</svg>
